<?xml version="1.0" standalone="no"?>
<!DOCTYPE svg PUBLIC "-//W3C//DTD SVG 20010904//EN"
 "http://www.w3.org/TR/2001/REC-SVG-20010904/DTD/svg10.dtd">
<svg version="1.0" xmlns="http://www.w3.org/2000/svg"
 width="198.000000pt" height="198.000000pt" viewBox="0 0 198.000000 198.000000"
 preserveAspectRatio="xMidYMid meet">
<metadata>
Created by potrace 1.16, written by Peter Selinger 2001-2019
</metadata>
<g transform="translate(0.000000,198.000000) scale(0.100000,-0.100000)"
fill="#000000" stroke="none">
<path d="M455 1220 c-3 -5 -3 -10 1 -10 5 0 -6 -15 -23 -32 -41 -44 -49 -61
-67 -150 -9 -42 -21 -89 -27 -104 -5 -16 -8 -44 -4 -62 6 -34 50 -86 73 -88
58 -4 57 -4 42 -14 -10 -7 8 -9 63 -7 82 4 109 16 89 40 -7 8 -9 17 -4 21 4 4
-1 12 -10 17 -26 15 -37 69 -26 130 5 30 14 59 19 65 12 14 -1 137 -15 146 -6
4 -11 15 -11 25 0 14 -7 17 -32 15 -17 -2 -34 2 -38 7 -8 14 -22 14 -30 1z"/>
<path d="M662 973 l3 -158 33 -3 32 -3 0 60 0 61 75 0 75 0 0 30 0 30 -75 0
-75 0 0 40 0 40 85 0 85 0 0 30 0 30 -120 0 -121 0 3 -157z"/>
<path d="M1352 973 l3 -158 30 0 30 0 3 158 3 157 -36 0 -36 0 3 -157z"/>
<path d="M1500 1081 c0 -19 -6 -30 -18 -33 -10 -3 -19 -13 -19 -23 0 -10 9
-20 19 -23 15 -3 18 -15 18 -63 0 -32 5 -69 11 -82 25 -56 138 -65 127 -11 -2
12 -14 21 -33 24 -29 5 -30 7 -33 68 l-3 62 31 0 c25 0 30 4 30 25 0 21 -5 25
-30 25 -27 0 -30 3 -30 30 0 28 -3 30 -35 30 -32 0 -35 -3 -35 -29z"/>
<path d="M944 1047 c-2 -7 -3 -62 -2 -123 l3 -109 30 0 30 0 3 123 3 122 -31
0 c-17 0 -33 -6 -36 -13z"/>
<path d="M1060 1053 c0 -4 18 -32 39 -63 l39 -56 -39 -51 c-46 -61 -48 -73
-11 -73 19 0 36 11 59 37 l32 38 16 -22 c29 -41 46 -53 76 -53 16 0 29 4 29 8
0 5 -18 33 -40 62 -22 29 -40 56 -40 58 0 3 18 29 40 59 33 43 38 54 25 59
-26 10 -59 -4 -80 -36 -11 -16 -23 -30 -26 -30 -4 0 -17 16 -30 35 -19 28 -31
35 -56 35 -18 0 -33 -3 -33 -7z"/>
</g>
</svg>
